<?xml version="1.0" encoding="utf-8"?>
<!-- Generator: Adobe Illustrator 24.2.3, SVG Export Plug-In . SVG Version: 6.00 Build 0)  -->
<svg version="1.1" id="Layer_1" xmlns="http://www.w3.org/2000/svg" xmlns:xlink="http://www.w3.org/1999/xlink" x="0px" y="0px"
	 viewBox="0 0 288 144" style="enable-background:new 0 0 288 144;" xml:space="preserve">
<style type="text/css">
	.st0{fill:#0A2240;}
	.st1{fill:#E07C00;}
	.st2{fill:none;stroke:#E07C00;stroke-width:1.2983;stroke-miterlimit:10;}
</style>
<polygon class="st0" points="191.6,56.8 191.6,77 261.9,36.8 261.9,56.2 191.6,96.4 191.6,116.6 279,66.6 279,56.2 279,46.4 279,27 
	279,19 279,6.8 "/>
<polygon class="st1" points="191.6,77 191.6,56.8 151.3,33.5 151.3,49.3 151.3,53.8 151.3,73.2 151.3,86.6 151.3,93.4 191.6,116.6 
	191.6,96.4 168.3,83.1 168.3,63.7 "/>
<g>
	<path class="st0" d="M15.7,53.7c-3.1,0-5.6-2.5-5.6-5.6s2.3-5.6,5.6-5.6c2,0,3.2,0.7,4.3,1.7l-1.2,1.4c-0.9-0.8-1.8-1.4-3.1-1.4
		c-2.1,0-3.6,1.7-3.6,3.9s1.5,3.9,3.6,3.9c1.4,0,2.2-0.6,3.1-1.4l1.2,1.2C19,53,17.7,53.7,15.7,53.7z"/>
	<path class="st0" d="M27,53.7c-3.4,0-5.7-2.6-5.7-5.6s2.3-5.6,5.7-5.6c3.4,0,5.7,2.6,5.7,5.6C32.7,51.2,30.3,53.7,27,53.7z
		 M27,44.2c-2.2,0-3.7,1.7-3.7,3.9c0,2.1,1.5,3.9,3.7,3.9s3.7-1.7,3.7-3.9C30.7,46,29.1,44.2,27,44.2z"/>
	<path class="st0" d="M42.6,42.7h1.9v10.9h-1.6l-6-7.7v7.7H35V42.7h1.8l5.9,7.6L42.6,42.7z"/>
	<path class="st0" d="M51.5,47.3c2.3,0.6,3.5,1.4,3.5,3.2c0,2.1-1.6,3.3-3.9,3.3c-1.7,0-3.2-0.6-4.5-1.8l1.1-1.4
		c1,0.9,2.1,1.4,3.5,1.4c1.2,0,1.9-0.6,1.9-1.4c0-0.8-0.4-1.2-2.5-1.7c-2.3-0.6-3.6-1.2-3.6-3.3c0-1.9,1.5-3.1,3.7-3.1
		c1.6,0,2.8,0.5,3.9,1.4l-1,1.4c-1-0.7-1.9-1.1-3-1.1c-1.1,0-1.8,0.6-1.8,1.3C48.9,46.4,49.4,46.7,51.5,47.3z"/>
	<path class="st0" d="M61.6,53.6h-1.9v-9.1h-3.5v-1.8h8.9v1.8h-3.5L61.6,53.6z"/>
	<path class="st0" d="M74.1,53.6l-2.7-3.8h-2.4v3.8h-1.9V42.7h4.8c2.5,0,4,1.3,4,3.5c0,1.8-1,2.9-2.6,3.3l3,4.1L74.1,53.6L74.1,53.6
		z M71.9,44.4h-2.8V48h2.8c1.4,0,2.3-0.7,2.3-1.9C74.1,45,73.2,44.4,71.9,44.4z"/>
	<path class="st0" d="M87.6,48.9c0,3.2-1.9,4.9-4.7,4.9s-4.7-1.6-4.7-4.8v-6.3h1.9v6.2c0,2,1,3.1,2.7,3.1c1.7,0,2.7-1,2.7-3.1v-6.3
		h1.9V48.9z"/>
	<path class="st0" d="M95.2,53.7c-3.1,0-5.6-2.5-5.6-5.6s2.3-5.6,5.6-5.6c2,0,3.2,0.7,4.3,1.7l-1.2,1.4c-0.9-0.8-1.8-1.4-3.1-1.4
		c-2.1,0-3.6,1.7-3.6,3.9s1.5,3.9,3.6,3.9c1.4,0,2.2-0.6,3.1-1.4l1.2,1.2C98.5,53,97.3,53.7,95.2,53.7z"/>
	<path class="st0" d="M106.2,53.6h-1.9v-9.1h-3.5v-1.8h8.9v1.8h-3.5V53.6z"/>
	<path class="st0" d="M113.8,42.7v10.9h-1.9V42.7H113.8z"/>
	<path class="st0" d="M121.9,53.7c-3.4,0-5.7-2.6-5.7-5.6s2.3-5.6,5.7-5.6c3.4,0,5.7,2.6,5.7,5.6C127.6,51.2,125.2,53.7,121.9,53.7z
		 M121.9,44.2c-2.2,0-3.7,1.7-3.7,3.9c0,2.1,1.5,3.9,3.7,3.9c2.2,0,3.7-1.7,3.7-3.9C125.6,46,124,44.2,121.9,44.2z"/>
	<path class="st0" d="M137.6,42.7h1.9v10.9h-1.6l-6-7.7v7.7h-1.9V42.7h1.8l5.9,7.6V42.7z"/>
	<path class="st0" d="M22,83.4c-7.5,0-13-5.9-13-13.4c0-7.4,5.5-13.4,13-13.4c4.7,0,7.5,1.7,10.1,4.1l-2,2.2
		c-2.2-2.1-4.6-3.5-8.1-3.5c-5.7,0-10,4.6-10,10.6c0,6,4.3,10.7,10.1,10.7c3.5,0,5.9-1.4,8.4-3.7l1.9,1.9
		C29.6,81.6,26.6,83.4,22,83.4z"/>
	<path class="st0" d="M40.3,71.3v11.6h-2.9V57h2.9v11.5h14.9V57h2.9v25.8h-2.9V71.3L40.3,71.3L40.3,71.3z"/>
	<path class="st0" d="M84.1,59.8H68.3v8.9h14.1v2.7H68.3v9h15.9V83H65.4V57.1h18.7V59.8z"/>
	<path class="st0" d="M102,83.4c-7.5,0-13-5.9-13-13.4c0-7.4,5.5-13.4,13-13.4c4.7,0,7.5,1.7,10.1,4.1l-2,2.2
		c-2.2-2.1-4.6-3.5-8.1-3.5c-5.7,0-10,4.6-10,10.6c0,6,4.3,10.7,10,10.7c3.5,0,5.9-1.4,8.4-3.7l1.9,1.9
		C109.6,81.6,106.6,83.4,102,83.4z"/>
	<path class="st0" d="M139.4,83h-3.6l-9.9-12.5l-5.5,5.6V83h-2.9V57.1h2.9v15.5l14.8-15.5h3.8l-11.1,11.3L139.4,83z"/>
</g>
<line class="st2" x1="9" y1="92.8" x2="139.4" y2="92.8"/>
<g>
	<path class="st0" d="M9,102.6h5v1.2h-3.5v1.4h3.2v1.2h-3.2v1.5h3.6v1.2H9V102.6z"/>
	<path class="st0" d="M14.3,104.1l1.5,0l1.2,3.7l1.2-3.7h1.4l-1.9,5h-1.5L14.3,104.1z"/>
	<path class="st0" d="M23,109.1v-0.6c-0.2,0.2-0.4,0.4-0.7,0.5c-0.3,0.1-0.6,0.2-0.9,0.2c-0.5,0-1-0.1-1.3-0.4
		c-0.3-0.3-0.5-0.7-0.5-1.1c0-0.5,0.2-0.8,0.5-1.1c0.3-0.3,0.8-0.4,1.4-0.4h1.4V106c0-0.3-0.1-0.5-0.3-0.6c-0.2-0.1-0.4-0.2-0.8-0.2
		c-0.5,0-1,0.1-1.5,0.4l-0.4-1c0.4-0.2,0.8-0.3,1.1-0.4c0.3-0.1,0.7-0.1,1.2-0.1c0.7,0,1.2,0.2,1.6,0.5c0.4,0.3,0.6,0.8,0.6,1.3
		l0,3.3H23z M22.5,108c0.2-0.1,0.3-0.3,0.4-0.5V107h-1.1c-0.3,0-0.5,0-0.6,0.1c-0.1,0.1-0.2,0.2-0.2,0.4c0,0.2,0.1,0.3,0.2,0.5
		c0.1,0.1,0.3,0.2,0.6,0.2C22.1,108.2,22.3,108.1,22.5,108z"/>
	<path class="st0" d="M25.5,102.2h1.4v6.9h-1.4V102.2z"/>
	<path class="st0" d="M32.9,104.1v5h-1.4v-0.9c-0.3,0.6-0.9,0.9-1.7,0.9c-0.6,0-1-0.2-1.3-0.5c-0.3-0.3-0.5-0.8-0.5-1.4v-3.2h1.4
		v2.7c0,0.3,0.1,0.6,0.3,0.7c0.2,0.2,0.4,0.3,0.7,0.3c0.3,0,0.6-0.1,0.8-0.4c0.2-0.2,0.3-0.5,0.3-0.9v-2.5H32.9z"/>
	<path class="st0" d="M37.1,109.1v-0.6c-0.2,0.2-0.4,0.4-0.7,0.5c-0.3,0.1-0.6,0.2-0.9,0.2c-0.5,0-1-0.1-1.3-0.4
		c-0.3-0.3-0.5-0.7-0.5-1.1c0-0.5,0.2-0.8,0.5-1.1c0.3-0.3,0.8-0.4,1.4-0.4h1.4V106c0-0.3-0.1-0.5-0.3-0.6c-0.2-0.1-0.4-0.2-0.8-0.2
		c-0.5,0-1,0.1-1.5,0.4l-0.4-1c0.4-0.2,0.8-0.3,1.1-0.4c0.3-0.1,0.7-0.1,1.2-0.1c0.7,0,1.2,0.2,1.6,0.5c0.4,0.3,0.6,0.8,0.6,1.3
		l0,3.3H37.1z M36.7,108c0.2-0.1,0.3-0.3,0.4-0.5V107h-1.1c-0.3,0-0.5,0-0.6,0.1c-0.1,0.1-0.2,0.2-0.2,0.4c0,0.2,0.1,0.3,0.2,0.5
		c0.1,0.1,0.3,0.2,0.6,0.2C36.2,108.2,36.4,108.1,36.7,108z"/>
	<path class="st0" d="M42.6,108.9c-0.2,0.1-0.4,0.2-0.6,0.3c-0.2,0.1-0.5,0.1-0.7,0.1c-0.5,0-0.8-0.1-1.1-0.4
		c-0.3-0.3-0.4-0.7-0.4-1.2v-2.3H39v-1h0.7V103h1.4v1.4h1.4v1h-1.4v2.1c0,0.4,0.2,0.6,0.5,0.6c0.2,0,0.4-0.1,0.7-0.2L42.6,108.9z"/>
	<path class="st0" d="M47.4,104.8c0.4,0.5,0.6,1.1,0.6,2c0,0.1,0,0.3,0,0.3h-3.6c0.1,0.3,0.2,0.6,0.5,0.7s0.5,0.3,0.8,0.3
		c0.2,0,0.5,0,0.7-0.1c0.2-0.1,0.4-0.2,0.6-0.4l0.8,0.8c-0.3,0.3-0.6,0.5-0.9,0.7c-0.4,0.2-0.8,0.2-1.2,0.2c-0.5,0-1-0.1-1.4-0.3
		c-0.4-0.2-0.7-0.5-0.9-0.9c-0.2-0.4-0.3-0.8-0.3-1.3c0-0.5,0.1-1,0.3-1.4c0.2-0.4,0.5-0.7,0.9-0.9c0.4-0.2,0.8-0.3,1.3-0.3
		C46.3,104.1,46.9,104.3,47.4,104.8z M46.6,106.2c0-0.3-0.1-0.6-0.3-0.8c-0.2-0.2-0.5-0.3-0.8-0.3c-0.3,0-0.6,0.1-0.8,0.3
		c-0.2,0.2-0.3,0.5-0.4,0.8H46.6z"/>
	<path class="st0" d="M49.7,107.9c0.1,0.1,0.2,0.3,0.2,0.5c0,0.2-0.1,0.4-0.2,0.5c-0.1,0.1-0.3,0.2-0.5,0.2c-0.2,0-0.4-0.1-0.5-0.2
		c-0.1-0.1-0.2-0.3-0.2-0.5c0-0.2,0.1-0.4,0.2-0.5c0.1-0.1,0.3-0.2,0.5-0.2C49.4,107.7,49.5,107.8,49.7,107.9z"/>
	<path class="st0" d="M56.8,109.1l-1-1.9h-0.1h-1.4v1.9h-1.5v-6.5h2.8c0.9,0,1.5,0.2,2,0.6c0.5,0.4,0.7,1,0.7,1.7
		c0,0.5-0.1,0.9-0.3,1.3s-0.5,0.6-0.9,0.8l1.4,2.2H56.8z M54.3,106h1.4c0.4,0,0.7-0.1,0.9-0.3c0.2-0.2,0.3-0.5,0.3-0.8
		c0-0.4-0.1-0.6-0.3-0.8c-0.2-0.2-0.5-0.3-0.9-0.3h-1.4V106z"/>
	<path class="st0" d="M63.3,104.8c0.4,0.5,0.6,1.1,0.6,2c0,0.1,0,0.3,0,0.3h-3.6c0.1,0.3,0.2,0.6,0.5,0.7s0.5,0.3,0.8,0.3
		c0.2,0,0.5,0,0.7-0.1c0.2-0.1,0.4-0.2,0.6-0.4l0.8,0.8c-0.3,0.3-0.6,0.5-0.9,0.7c-0.4,0.2-0.8,0.2-1.2,0.2c-0.5,0-1-0.1-1.4-0.3
		c-0.4-0.2-0.7-0.5-0.9-0.9c-0.2-0.4-0.3-0.8-0.3-1.3c0-0.5,0.1-1,0.3-1.4c0.2-0.4,0.5-0.7,0.9-0.9c0.4-0.2,0.8-0.3,1.3-0.3
		C62.3,104.1,62.9,104.3,63.3,104.8z M62.6,106.2c0-0.3-0.1-0.6-0.3-0.8c-0.2-0.2-0.5-0.3-0.8-0.3c-0.3,0-0.6,0.1-0.8,0.3
		c-0.2,0.2-0.3,0.5-0.4,0.8H62.6z"/>
	<path class="st0" d="M67.2,105.3c-0.4,0-0.7,0.1-0.9,0.4c-0.2,0.2-0.3,0.6-0.3,1c0,0.4,0.1,0.7,0.3,1c0.2,0.3,0.5,0.4,0.9,0.4
		c0.5,0,0.9-0.2,1.2-0.6l1,0.7c-0.2,0.4-0.5,0.6-0.9,0.8c-0.4,0.2-0.8,0.3-1.3,0.3c-0.5,0-1-0.1-1.3-0.3s-0.7-0.5-0.9-0.9
		c-0.2-0.4-0.3-0.8-0.3-1.3c0-0.5,0.1-1,0.3-1.4c0.2-0.4,0.5-0.7,0.9-0.9c0.4-0.2,0.8-0.3,1.4-0.3c0.5,0,0.9,0.1,1.3,0.3
		c0.4,0.2,0.7,0.4,0.9,0.8l-1,0.7C68,105.5,67.6,105.3,67.2,105.3z"/>
	<path class="st0" d="M73.7,104.4c0.4,0.2,0.7,0.5,0.9,0.9c0.2,0.4,0.3,0.8,0.3,1.3c0,0.5-0.1,1-0.3,1.3c-0.2,0.4-0.5,0.7-0.9,0.9
		c-0.4,0.2-0.9,0.3-1.4,0.3c-0.5,0-1-0.1-1.4-0.3c-0.4-0.2-0.7-0.5-0.9-0.9c-0.2-0.4-0.3-0.8-0.3-1.3c0-0.5,0.1-1,0.3-1.3
		c0.2-0.4,0.5-0.7,0.9-0.9c0.4-0.2,0.9-0.3,1.4-0.3C72.8,104.1,73.3,104.2,73.7,104.4z M71.4,105.6c-0.2,0.3-0.4,0.6-0.4,1
		c0,0.4,0.1,0.7,0.4,1c0.2,0.3,0.5,0.4,0.9,0.4c0.4,0,0.7-0.1,0.9-0.4c0.2-0.3,0.4-0.6,0.4-1c0-0.4-0.1-0.7-0.4-1
		c-0.2-0.3-0.5-0.4-0.9-0.4C71.9,105.3,71.6,105.4,71.4,105.6z"/>
	<path class="st0" d="M80.3,104.6c0.3,0.3,0.5,0.8,0.5,1.4v3.2h-1.4v-2.7c0-0.3-0.1-0.6-0.3-0.8c-0.2-0.2-0.4-0.3-0.7-0.3
		c-0.4,0-0.6,0.1-0.8,0.4c-0.2,0.2-0.3,0.5-0.3,0.9v2.5h-1.4v-5h1.4v0.9c0.3-0.6,0.9-0.9,1.7-0.9C79.5,104.1,80,104.2,80.3,104.6z"
		/>
	<path class="st0" d="M84.2,105.3c-0.4,0-0.7,0.1-0.9,0.4c-0.2,0.2-0.3,0.6-0.3,1c0,0.4,0.1,0.7,0.3,1c0.2,0.3,0.5,0.4,0.9,0.4
		c0.5,0,0.9-0.2,1.2-0.6l1,0.7c-0.2,0.4-0.5,0.6-0.9,0.8c-0.4,0.2-0.8,0.3-1.3,0.3c-0.5,0-1-0.1-1.3-0.3s-0.7-0.5-0.9-0.9
		c-0.2-0.4-0.3-0.8-0.3-1.3c0-0.5,0.1-1,0.3-1.4c0.2-0.4,0.5-0.7,0.9-0.9c0.4-0.2,0.8-0.3,1.4-0.3c0.5,0,0.9,0.1,1.3,0.3
		c0.4,0.2,0.7,0.4,0.9,0.8l-1,0.7C85,105.5,84.6,105.3,84.2,105.3z"/>
	<path class="st0" d="M88.3,102.1c0.1,0.1,0.2,0.3,0.2,0.6c0,0.2-0.1,0.4-0.2,0.6c-0.1,0.2-0.3,0.2-0.6,0.2c-0.2,0-0.4-0.1-0.6-0.2
		c-0.1-0.2-0.2-0.3-0.2-0.6c0-0.2,0.1-0.4,0.2-0.6c0.1-0.1,0.3-0.2,0.6-0.2C87.9,101.9,88.1,102,88.3,102.1z M87,104.1h1.4v5H87
		V104.1z"/>
	<path class="st0" d="M89.6,102.2h1.4v6.9h-1.4V102.2z"/>
	<path class="st0" d="M96.3,104.8c0.4,0.5,0.6,1.1,0.6,2c0,0.1,0,0.3,0,0.3h-3.6c0.1,0.3,0.2,0.6,0.5,0.7c0.2,0.2,0.5,0.3,0.8,0.3
		c0.2,0,0.5,0,0.7-0.1c0.2-0.1,0.4-0.2,0.6-0.4l0.8,0.8c-0.3,0.3-0.6,0.5-0.9,0.7c-0.4,0.2-0.8,0.2-1.2,0.2c-0.5,0-1-0.1-1.4-0.3
		c-0.4-0.2-0.7-0.5-0.9-0.9c-0.2-0.4-0.3-0.8-0.3-1.3c0-0.5,0.1-1,0.3-1.4c0.2-0.4,0.5-0.7,0.9-0.9c0.4-0.2,0.8-0.3,1.3-0.3
		C95.3,104.1,95.9,104.3,96.3,104.8z M95.6,106.2c0-0.3-0.1-0.6-0.3-0.8c-0.2-0.2-0.5-0.3-0.8-0.3c-0.3,0-0.6,0.1-0.8,0.3
		c-0.2,0.2-0.3,0.5-0.4,0.8H95.6z"/>
	<path class="st0" d="M98.7,107.9c0.1,0.1,0.2,0.3,0.2,0.5c0,0.2-0.1,0.4-0.2,0.5c-0.1,0.1-0.3,0.2-0.5,0.2c-0.2,0-0.4-0.1-0.5-0.2
		c-0.1-0.1-0.2-0.3-0.2-0.5c0-0.2,0.1-0.4,0.2-0.5c0.1-0.1,0.3-0.2,0.5-0.2C98.3,107.7,98.5,107.8,98.7,107.9z"/>
	<path class="st0" d="M99.9,102.6h1.6l1.8,4.9l1.8-4.9h1.5l-2.6,6.5h-1.5L99.9,102.6z"/>
	<path class="st0" d="M109.7,109.1v-0.6c-0.2,0.2-0.4,0.4-0.7,0.5c-0.3,0.1-0.6,0.2-0.9,0.2c-0.5,0-1-0.1-1.3-0.4
		c-0.3-0.3-0.5-0.7-0.5-1.1c0-0.5,0.2-0.8,0.5-1.1c0.3-0.3,0.8-0.4,1.4-0.4h1.4V106c0-0.3-0.1-0.5-0.3-0.6c-0.2-0.1-0.4-0.2-0.8-0.2
		c-0.5,0-1,0.1-1.5,0.4l-0.4-1c0.4-0.2,0.8-0.3,1.1-0.4c0.3-0.1,0.7-0.1,1.2-0.1c0.7,0,1.2,0.2,1.6,0.5c0.4,0.3,0.6,0.8,0.6,1.3
		l0,3.3H109.7z M109.3,108c0.2-0.1,0.3-0.3,0.4-0.5V107h-1.1c-0.3,0-0.5,0-0.6,0.1c-0.1,0.1-0.2,0.2-0.2,0.4c0,0.2,0.1,0.3,0.2,0.5
		c0.1,0.1,0.3,0.2,0.6,0.2C108.9,108.2,109.1,108.1,109.3,108z"/>
	<path class="st0" d="M112.3,102.2h1.4v6.9h-1.4V102.2z"/>
	<path class="st0" d="M116.2,102.1c0.1,0.1,0.2,0.3,0.2,0.6c0,0.2-0.1,0.4-0.2,0.6c-0.1,0.2-0.3,0.2-0.6,0.2c-0.2,0-0.4-0.1-0.6-0.2
		c-0.1-0.2-0.2-0.3-0.2-0.6c0-0.2,0.1-0.4,0.2-0.6c0.1-0.1,0.3-0.2,0.6-0.2C115.8,101.9,116,102,116.2,102.1z M114.9,104.1h1.4v5
		h-1.4V104.1z"/>
	<path class="st0" d="M122.5,102.2v6.9h-1.4v-0.7c-0.2,0.3-0.4,0.5-0.7,0.6c-0.3,0.1-0.6,0.2-0.9,0.2c-0.5,0-0.9-0.1-1.2-0.3
		s-0.6-0.5-0.8-0.9c-0.2-0.4-0.3-0.8-0.3-1.4c0-0.5,0.1-1,0.3-1.3c0.2-0.4,0.5-0.7,0.8-0.9c0.4-0.2,0.8-0.3,1.2-0.3
		c0.7,0,1.3,0.3,1.6,0.8v-2.6H122.5z M120.7,107.7c0.2-0.3,0.4-0.6,0.4-1c0-0.4-0.1-0.7-0.4-1c-0.2-0.3-0.5-0.4-0.9-0.4
		c-0.4,0-0.7,0.1-0.9,0.4c-0.2,0.3-0.4,0.6-0.4,1c0,0.4,0.1,0.7,0.4,1c0.2,0.3,0.5,0.4,0.9,0.4C120.2,108,120.5,107.9,120.7,107.7z"
		/>
	<path class="st0" d="M126.7,109.1v-0.6c-0.2,0.2-0.4,0.4-0.7,0.5c-0.3,0.1-0.6,0.2-0.9,0.2c-0.5,0-1-0.1-1.3-0.4
		c-0.3-0.3-0.5-0.7-0.5-1.1c0-0.5,0.2-0.8,0.5-1.1c0.3-0.3,0.8-0.4,1.4-0.4h1.4V106c0-0.3-0.1-0.5-0.3-0.6c-0.2-0.1-0.4-0.2-0.8-0.2
		c-0.5,0-1,0.1-1.5,0.4l-0.4-1c0.4-0.2,0.8-0.3,1.1-0.4c0.3-0.1,0.7-0.1,1.2-0.1c0.7,0,1.2,0.2,1.6,0.5c0.4,0.3,0.6,0.8,0.6,1.3
		l0,3.3H126.7z M126.3,108c0.2-0.1,0.3-0.3,0.4-0.5V107h-1.1c-0.3,0-0.5,0-0.6,0.1c-0.1,0.1-0.2,0.2-0.2,0.4c0,0.2,0.1,0.3,0.2,0.5
		c0.1,0.1,0.3,0.2,0.6,0.2C125.8,108.2,126.1,108.1,126.3,108z"/>
	<path class="st0" d="M132.2,108.9c-0.2,0.1-0.4,0.2-0.6,0.3c-0.2,0.1-0.5,0.1-0.7,0.1c-0.5,0-0.8-0.1-1.1-0.4
		c-0.3-0.3-0.4-0.7-0.4-1.2v-2.3h-0.7v-1h0.7V103h1.4v1.4h1.4v1h-1.4v2.1c0,0.4,0.2,0.6,0.5,0.6c0.2,0,0.4-0.1,0.7-0.2L132.2,108.9z
		"/>
	<path class="st0" d="M137,104.8c0.4,0.5,0.6,1.1,0.6,2c0,0.1,0,0.3,0,0.3H134c0.1,0.3,0.2,0.6,0.5,0.7c0.2,0.2,0.5,0.3,0.8,0.3
		c0.2,0,0.5,0,0.7-0.1c0.2-0.1,0.4-0.2,0.6-0.4l0.8,0.8c-0.3,0.3-0.6,0.5-0.9,0.7c-0.4,0.2-0.8,0.2-1.2,0.2c-0.5,0-1-0.1-1.4-0.3
		c-0.4-0.2-0.7-0.5-0.9-0.9c-0.2-0.4-0.3-0.8-0.3-1.3c0-0.5,0.1-1,0.3-1.4c0.2-0.4,0.5-0.7,0.9-0.9c0.4-0.2,0.8-0.3,1.3-0.3
		C135.9,104.1,136.5,104.3,137,104.8z M136.2,106.2c0-0.3-0.1-0.6-0.3-0.8c-0.2-0.2-0.5-0.3-0.8-0.3c-0.3,0-0.6,0.1-0.8,0.3
		c-0.2,0.2-0.3,0.5-0.4,0.8H136.2z"/>
	<path class="st0" d="M139.3,107.9c0.1,0.1,0.2,0.3,0.2,0.5c0,0.2-0.1,0.4-0.2,0.5c-0.1,0.1-0.3,0.2-0.5,0.2c-0.2,0-0.4-0.1-0.5-0.2
		c-0.1-0.1-0.2-0.3-0.2-0.5c0-0.2,0.1-0.4,0.2-0.5c0.1-0.1,0.3-0.2,0.5-0.2C139,107.7,139.1,107.8,139.3,107.9z"/>
</g>
<g>
	<path class="st0" d="M141.1,79.6h2.7v0.7h-1V83h-0.8v-2.7h-1V79.6z M144.2,79.6h0.9l1,2l1-2h0.9V83h-0.7v-2.2l-0.9,1.9h-0.5
		l-0.9-1.9V83h-0.7V79.6z"/>
</g>
</svg>
