<?xml version="1.0" encoding="utf-8"?>
<!-- Generator: Adobe Illustrator 24.1.0, SVG Export Plug-In . SVG Version: 6.00 Build 0)  -->
<svg version="1.1" id="Layer_1" xmlns="http://www.w3.org/2000/svg" xmlns:xlink="http://www.w3.org/1999/xlink" x="0px" y="0px"
	 viewBox="0 0 288 288" style="enable-background:new 0 0 288 288;" xml:space="preserve">
<style type="text/css">
	.st0{fill:#FFFFFF;}
	.st1{fill:#DE7E26;}
	.st2{fill:none;stroke:#DE7E26;stroke-width:1.7921;stroke-miterlimit:10;}
</style>
<g>
	<path class="st0" d="M63.22,182.23c-4.33,0-7.67-3.44-7.67-7.78s3.22-7.78,7.78-7.78c2.78,0,4.44,1,5.89,2.33l-1.67,2
		c-1.22-1.11-2.44-1.89-4.22-1.89c-2.89,0-5,2.33-5,5.33s2.11,5.33,5,5.33c1.89,0,3-0.78,4.33-2l1.67,1.67
		C67.78,181.23,66,182.23,63.22,182.23z"/>
	<path class="st0" d="M78.89,182.23c-4.67,0-7.89-3.56-7.89-7.78s3.22-7.78,7.89-7.78s7.89,3.56,7.89,7.78
		C86.78,178.79,83.44,182.23,78.89,182.23z M78.89,169.12c-3,0-5.11,2.33-5.11,5.33c0,2.89,2.11,5.33,5.11,5.33
		c3,0,5.11-2.33,5.11-5.33C84,171.57,81.78,169.12,78.89,169.12z"/>
	<path class="st0" d="M100.44,167.01H103v15h-2.22l-8.33-10.67v10.67h-2.56v-15h2.44l8.11,10.44L100.44,167.01z"/>
	<path class="st0" d="M112.67,173.34c3.22,0.78,4.89,1.89,4.89,4.44c0,2.89-2.22,4.56-5.33,4.56c-2.33,0-4.44-0.78-6.22-2.44
		l1.56-1.89c1.44,1.22,2.89,2,4.78,2c1.67,0,2.67-0.78,2.67-1.89s-0.56-1.67-3.44-2.33c-3.22-0.78-5-1.67-5-4.56
		c0-2.67,2.11-4.33,5.11-4.33c2.22,0,3.89,0.67,5.44,1.89l-1.44,2c-1.33-1-2.67-1.56-4.11-1.56c-1.56,0-2.44,0.78-2.44,1.78
		C109.11,172.12,109.78,172.57,112.67,173.34z"/>
	<path class="st0" d="M126.67,182.01H124v-12.56h-4.78v-2.44h12.22v2.44h-4.78C126.67,169.45,126.67,182.01,126.67,182.01z"/>
	<path class="st0" d="M143.89,182.01l-3.67-5.22h-3.33v5.22h-2.67v-15h6.67c3.44,0,5.56,1.78,5.56,4.78c0,2.44-1.44,4-3.56,4.56
		l4.11,5.67L143.89,182.01L143.89,182.01z M140.78,169.34h-3.89v5h3.89c1.89,0,3.11-1,3.11-2.56S142.67,169.34,140.78,169.34z"/>
	<path class="st0" d="M162.44,175.57c0,4.44-2.56,6.78-6.44,6.78s-6.44-2.22-6.44-6.67v-8.67h2.67v8.56c0,2.78,1.44,4.33,3.78,4.33
		s3.78-1.44,3.78-4.22v-8.67h2.67V175.57z"/>
	<path class="st0" d="M173,182.23c-4.33,0-7.67-3.44-7.67-7.78s3.22-7.78,7.78-7.78c2.78,0,4.44,1,5.89,2.33l-1.67,2
		c-1.22-1.11-2.44-1.89-4.22-1.89c-2.89,0-5,2.33-5,5.33s2.11,5.33,5,5.33c1.89,0,3-0.78,4.33-2l1.67,1.67
		C177.56,181.23,175.89,182.23,173,182.23z"/>
	<path class="st0" d="M188.22,182.01h-2.67v-12.56h-4.78v-2.44H193v2.44h-4.78V182.01z"/>
	<path class="st0" d="M198.67,167.01v15H196v-15H198.67z"/>
	<path class="st0" d="M209.78,182.23c-4.67,0-7.89-3.56-7.89-7.78s3.22-7.78,7.89-7.78s7.89,3.56,7.89,7.78
		C217.67,178.79,214.44,182.23,209.78,182.23z M209.78,169.12c-3,0-5.11,2.33-5.11,5.33c0,2.89,2.11,5.33,5.11,5.33
		c3,0,5.11-2.33,5.11-5.33C214.89,171.57,212.78,169.12,209.78,169.12z"/>
	<path class="st0" d="M231.44,167.01H234v15h-2.22l-8.33-10.67v10.67h-2.56v-15h2.44l8.11,10.44V167.01z"/>
	<path class="st0" d="M71.89,223.12c-10.33,0-17.89-8.11-17.89-18.44c0-10.22,7.56-18.44,18-18.44c6.44,0,10.33,2.33,13.89,5.67
		l-2.78,3c-3-2.89-6.33-4.89-11.22-4.89c-7.89,0-13.78,6.33-13.78,14.67s6,14.78,13.89,14.78c4.89,0,8.11-1.89,11.56-5.11l2.67,2.56
		C82.44,220.68,78.33,223.12,71.89,223.12z"/>
	<path class="st0" d="M97.22,206.45v16h-4v-35.67h4v15.89h20.56v-15.89h4v35.67h-4v-16L97.22,206.45L97.22,206.45z"/>
	<path class="st0" d="M157.67,190.57h-21.78v12.22h19.44v3.67h-19.44v12.44h22v3.67h-26V186.9h25.78V190.57z"/>
	<path class="st0" d="M182.33,223.12c-10.33,0-17.89-8.11-17.89-18.44c0-10.22,7.56-18.44,18-18.44c6.44,0,10.33,2.33,13.89,5.67
		l-2.78,3c-3-2.89-6.33-4.89-11.22-4.89c-7.89,0-13.78,6.33-13.78,14.67s6,14.78,13.78,14.78c4.89,0,8.11-1.89,11.56-5.11l2.67,2.56
		C192.89,220.68,188.78,223.12,182.33,223.12z"/>
	<path class="st0" d="M234,222.57h-5l-13.67-17.22l-7.56,7.67v9.56h-4V186.9h4v21.33l20.44-21.33h5.22l-15.33,15.56L234,222.57z"/>
</g>
<g>
	<polygon class="st0" points="111.48,73.64 111.48,101.54 208.64,45.96 208.64,72.75 111.48,128.33 111.48,156.23 232.21,87.2 
		232.21,72.86 232.21,59.3 232.21,32.51 232.21,21.39 232.21,4.6 	"/>
	<polygon class="st1" points="111.48,101.54 111.48,73.64 55.79,41.51 55.79,63.3 55.79,69.52 55.79,96.31 55.79,114.77 
		55.79,124.22 111.48,156.23 111.48,128.33 79.36,109.88 79.36,83.09 	"/>
</g>
<line class="st2" x1="54.03" y1="234.91" x2="233.97" y2="234.91"/>
<g>
	<path class="st0" d="M58.36,250.62h-4.26v-2.51H65.7v2.51h-4.26v10.79h-3.08V250.62z"/>
	<path class="st0" d="M71.42,251.42c0.6-0.25,1.3-0.38,2.08-0.38v2.74c-0.33-0.02-0.55-0.04-0.67-0.04c-0.85,0-1.51,0.24-1.99,0.71
		c-0.48,0.48-0.72,1.19-0.72,2.14v4.83h-2.96v-10.22h2.83v1.35C70.34,252.04,70.81,251.67,71.42,251.42z"/>
	<path class="st0" d="M86.84,251.19v10.22h-2.81v-1.22c-0.39,0.44-0.86,0.78-1.41,1.02c-0.54,0.23-1.13,0.35-1.77,0.35
		c-1.34,0-2.41-0.39-3.19-1.16c-0.79-0.77-1.18-1.92-1.18-3.44v-5.78h2.96v5.34c0,1.65,0.69,2.47,2.07,2.47
		c0.71,0,1.28-0.23,1.71-0.69c0.43-0.46,0.65-1.15,0.65-2.06v-5.05H86.84z"/>
	<path class="st0" d="M92.04,261.25c-0.81-0.21-1.46-0.47-1.94-0.79l0.99-2.13c0.46,0.29,1.01,0.53,1.65,0.71
		c0.65,0.18,1.28,0.28,1.9,0.28c1.25,0,1.88-0.31,1.88-0.93c0-0.29-0.17-0.5-0.51-0.63c-0.34-0.13-0.87-0.23-1.58-0.32
		c-0.84-0.13-1.53-0.27-2.07-0.44c-0.54-0.16-1.02-0.46-1.42-0.87s-0.6-1.01-0.6-1.79c0-0.65,0.19-1.22,0.56-1.72
		c0.37-0.5,0.92-0.89,1.63-1.17c0.72-0.28,1.56-0.42,2.54-0.42c0.72,0,1.44,0.08,2.16,0.24c0.72,0.16,1.31,0.38,1.78,0.66
		l-0.99,2.11c-0.9-0.51-1.88-0.76-2.95-0.76c-0.63,0-1.11,0.09-1.42,0.27c-0.32,0.18-0.48,0.41-0.48,0.68
		c0,0.32,0.17,0.54,0.51,0.67c0.34,0.13,0.89,0.25,1.63,0.36c0.84,0.14,1.52,0.29,2.05,0.45c0.53,0.16,0.99,0.45,1.39,0.86
		c0.39,0.42,0.59,1,0.59,1.75c0,0.63-0.19,1.2-0.57,1.69s-0.93,0.88-1.66,1.15s-1.59,0.41-2.59,0.41
		C93.68,261.56,92.85,261.46,92.04,261.25z"/>
	<path class="st0" d="M109.39,260.92c-0.29,0.22-0.65,0.38-1.07,0.48c-0.42,0.11-0.87,0.16-1.34,0.16c-1.22,0-2.16-0.31-2.82-0.93
		c-0.67-0.62-1-1.53-1-2.74v-4.2h-1.58v-2.28h1.58v-2.49h2.96v2.49h2.55v2.28h-2.55v4.16c0,0.43,0.11,0.76,0.33,1
		s0.54,0.35,0.94,0.35c0.47,0,0.87-0.13,1.2-0.38L109.39,260.92z"/>
	<path class="st0" d="M131.24,255.7c0.43,0.56,0.65,1.26,0.65,2.08c0,1.17-0.45,2.06-1.36,2.69c-0.91,0.63-2.23,0.94-3.96,0.94
		h-6.88v-13.3h6.5c1.62,0,2.87,0.31,3.73,0.93c0.87,0.62,1.3,1.46,1.3,2.53c0,0.65-0.16,1.22-0.47,1.73
		c-0.31,0.51-0.74,0.91-1.3,1.2C130.22,254.74,130.81,255.14,131.24,255.7z M122.75,250.43v3.13h3.06c0.76,0,1.34-0.13,1.73-0.4
		c0.39-0.27,0.59-0.66,0.59-1.18s-0.2-0.91-0.59-1.17s-0.97-0.39-1.73-0.39H122.75z M128.18,258.69c0.41-0.27,0.62-0.68,0.62-1.24
		c0-1.1-0.82-1.65-2.45-1.65h-3.59v3.29h3.59C127.15,259.09,127.76,258.96,128.18,258.69z"/>
	<path class="st0" d="M145.75,251.19v10.22h-2.81v-1.22c-0.39,0.44-0.86,0.78-1.41,1.02c-0.54,0.23-1.13,0.35-1.77,0.35
		c-1.34,0-2.41-0.39-3.19-1.16c-0.79-0.77-1.18-1.92-1.18-3.44v-5.78h2.96v5.34c0,1.65,0.69,2.47,2.07,2.47
		c0.71,0,1.28-0.23,1.71-0.69c0.43-0.46,0.65-1.15,0.65-2.06v-5.05H145.75z"/>
	<path class="st0" d="M156.59,260.92c-0.29,0.22-0.65,0.38-1.07,0.48c-0.42,0.11-0.87,0.16-1.34,0.16c-1.22,0-2.16-0.31-2.82-0.93
		c-0.67-0.62-1-1.53-1-2.74v-4.2h-1.58v-2.28h1.58v-2.49h2.96v2.49h2.55v2.28h-2.55v4.16c0,0.43,0.11,0.76,0.33,1
		s0.54,0.35,0.94,0.35c0.47,0,0.87-0.13,1.2-0.38L156.59,260.92z"/>
	<path class="st0" d="M179.67,248.11l-5.76,13.3h-3.04l-5.74-13.3h3.33l4.05,9.5l4.1-9.5H179.67z"/>
	<path class="st0" d="M191.34,257.14h-7.73c0.14,0.63,0.47,1.13,0.99,1.5c0.52,0.37,1.17,0.55,1.94,0.55c0.53,0,1-0.08,1.42-0.24
		c0.41-0.16,0.79-0.41,1.15-0.75l1.58,1.71c-0.96,1.1-2.37,1.65-4.22,1.65c-1.15,0-2.17-0.22-3.06-0.67
		c-0.89-0.45-1.57-1.07-2.05-1.87s-0.72-1.7-0.72-2.72c0-1,0.24-1.9,0.71-2.71c0.48-0.8,1.13-1.43,1.96-1.88
		c0.83-0.45,1.76-0.67,2.78-0.67c1,0,1.91,0.21,2.72,0.65c0.81,0.43,1.45,1.05,1.91,1.85c0.46,0.8,0.69,1.74,0.69,2.8
		C191.4,256.38,191.38,256.64,191.34,257.14z M184.41,253.85c-0.46,0.38-0.73,0.9-0.84,1.56h5.04c-0.1-0.65-0.38-1.16-0.84-1.55
		s-1.01-0.58-1.67-0.58C185.43,253.28,184.86,253.47,184.41,253.85z"/>
	<path class="st0" d="M199,251.42c0.6-0.25,1.29-0.38,2.08-0.38v2.74c-0.33-0.02-0.55-0.04-0.67-0.04c-0.85,0-1.51,0.24-2,0.71
		c-0.48,0.48-0.72,1.19-0.72,2.14v4.83h-2.96v-10.22h2.83v1.35C197.92,252.04,198.4,251.67,199,251.42z"/>
	<path class="st0" d="M204.25,249.29c-0.34-0.32-0.51-0.71-0.51-1.18s0.17-0.86,0.51-1.18c0.34-0.32,0.79-0.47,1.33-0.47
		c0.54,0,0.99,0.15,1.33,0.46c0.34,0.3,0.51,0.68,0.51,1.14c0,0.49-0.17,0.9-0.51,1.23c-0.34,0.32-0.79,0.48-1.33,0.48
		C205.04,249.76,204.6,249.61,204.25,249.29z M204.1,251.19h2.96v10.22h-2.96V251.19z"/>
	<path class="st0" d="M214.53,251.42h2.62v2.28h-2.55v7.71h-2.96v-7.71h-1.58v-2.28h1.58v-0.46c0-1.17,0.35-2.09,1.04-2.77
		c0.69-0.68,1.66-1.03,2.92-1.03c0.44,0,0.87,0.05,1.26,0.14c0.4,0.09,0.73,0.23,1,0.41l-0.78,2.15c-0.34-0.24-0.74-0.36-1.2-0.36
		c-0.9,0-1.35,0.49-1.35,1.48V251.42z"/>
	<path class="st0" d="M230.87,251.19l-4.62,10.85c-0.47,1.18-1.05,2.01-1.74,2.49c-0.69,0.48-1.52,0.72-2.5,0.72
		c-0.53,0-1.06-0.08-1.58-0.25c-0.52-0.17-0.94-0.39-1.27-0.68l1.08-2.11c0.23,0.2,0.49,0.36,0.79,0.47
		c0.3,0.11,0.59,0.17,0.88,0.17c0.41,0,0.73-0.1,0.99-0.29c0.25-0.2,0.48-0.52,0.68-0.98l0.04-0.09l-4.43-10.3h3.06l2.87,6.94
		l2.89-6.94H230.87z"/>
</g>
</svg>
