<svg id="cost_1_" data-name="cost (1)" xmlns="http://www.w3.org/2000/svg" width="45.264" height="53.969" viewBox="0 0 45.264 53.969">
  <path id="Path_22" data-name="Path 22" d="M45.264,13.057a13.052,13.052,0,0,0-24.6-6.093H.87a.869.869,0,0,0-.87.87V53.1a.869.869,0,0,0,.87.87h38.3a.869.869,0,0,0,.87-.87V23.478A13.032,13.032,0,0,0,45.264,13.057ZM21.786,20.891H5.223v-8.7H19.194c-.019.289-.044.576-.044.87A12.973,12.973,0,0,0,21.786,20.891ZM38.3,52.228H1.741V8.7H19.912a12.893,12.893,0,0,0-.5,1.741H4.352a.869.869,0,0,0-.87.87V21.762a.869.869,0,0,0,.87.87H23.36A12.986,12.986,0,0,0,38.3,24.6ZM32.207,24.373A11.316,11.316,0,1,1,43.523,13.057,11.329,11.329,0,0,1,32.207,24.373Zm0,0" transform="translate(0 0)" fill="#fff"/>
  <path id="Path_23" data-name="Path 23" d="M268.352,74.446a2.611,2.611,0,1,0,0-5.223h-1.741a.87.87,0,0,1,0-1.741h4.352V65.741h-2.611V64h-1.741v1.741a2.611,2.611,0,1,0,0,5.223h1.741a.87.87,0,0,1,0,1.741H264v1.741h2.611v1.741h1.741Zm0,0" transform="translate(-235.275 -57.036)" fill="#fff"/>
  <path id="Path_24" data-name="Path 24" d="M38.093,240H32.87a.869.869,0,0,0-.87.87v5.223a.869.869,0,0,0,.87.87h5.223a.869.869,0,0,0,.87-.87V240.87A.869.869,0,0,0,38.093,240Zm-.87,5.223H33.741v-3.482h3.482Zm0,0" transform="translate(-28.518 -213.886)" fill="#fff"/>
  <path id="Path_25" data-name="Path 25" d="M118.093,240H112.87a.869.869,0,0,0-.87.87v5.223a.869.869,0,0,0,.87.87h5.223a.869.869,0,0,0,.87-.87V240.87A.869.869,0,0,0,118.093,240Zm-.87,5.223h-3.482v-3.482h3.482Zm0,0" transform="translate(-99.814 -213.886)" fill="#fff"/>
  <path id="Path_26" data-name="Path 26" d="M198.093,240H192.87a.869.869,0,0,0-.87.87v5.223a.869.869,0,0,0,.87.87h5.223a.869.869,0,0,0,.87-.87V240.87A.869.869,0,0,0,198.093,240Zm-.87,5.223h-3.482v-3.482h3.482Zm0,0" transform="translate(-171.109 -213.886)" fill="#fff"/>
  <path id="Path_27" data-name="Path 27" d="M38.093,320H32.87a.869.869,0,0,0-.87.87v5.223a.869.869,0,0,0,.87.87h5.223a.869.869,0,0,0,.87-.87V320.87A.869.869,0,0,0,38.093,320Zm-.87,5.223H33.741v-3.482h3.482Zm0,0" transform="translate(-28.518 -285.181)" fill="#fff"/>
  <path id="Path_28" data-name="Path 28" d="M118.093,320H112.87a.869.869,0,0,0-.87.87v5.223a.869.869,0,0,0,.87.87h5.223a.869.869,0,0,0,.87-.87V320.87A.869.869,0,0,0,118.093,320Zm-.87,5.223h-3.482v-3.482h3.482Zm0,0" transform="translate(-99.814 -285.181)" fill="#fff"/>
  <path id="Path_29" data-name="Path 29" d="M198.093,320H192.87a.869.869,0,0,0-.87.87v5.223a.869.869,0,0,0,.87.87h5.223a.869.869,0,0,0,.87-.87V320.87A.869.869,0,0,0,198.093,320Zm-.87,5.223h-3.482v-3.482h3.482Zm0,0" transform="translate(-171.109 -285.181)" fill="#fff"/>
  <path id="Path_30" data-name="Path 30" d="M272,320.87V334.8a.869.869,0,0,0,.87.87h5.223a.869.869,0,0,0,.87-.87V320.87a.869.869,0,0,0-.87-.87H272.87A.869.869,0,0,0,272,320.87Zm1.741.87h3.482v12.186h-3.482Zm0,0" transform="translate(-242.404 -285.181)" fill="#fff"/>
  <path id="Path_31" data-name="Path 31" d="M38.093,400H32.87a.869.869,0,0,0-.87.87v5.223a.869.869,0,0,0,.87.87h5.223a.869.869,0,0,0,.87-.87V400.87A.869.869,0,0,0,38.093,400Zm-.87,5.223H33.741v-3.482h3.482Zm0,0" transform="translate(-28.518 -356.477)" fill="#fff"/>
  <path id="Path_32" data-name="Path 32" d="M118.093,400H112.87a.869.869,0,0,0-.87.87v5.223a.869.869,0,0,0,.87.87h5.223a.869.869,0,0,0,.87-.87V400.87A.869.869,0,0,0,118.093,400Zm-.87,5.223h-3.482v-3.482h3.482Zm0,0" transform="translate(-99.814 -356.477)" fill="#fff"/>
  <path id="Path_33" data-name="Path 33" d="M198.093,400H192.87a.869.869,0,0,0-.87.87v5.223a.869.869,0,0,0,.87.87h5.223a.869.869,0,0,0,.87-.87V400.87A.869.869,0,0,0,198.093,400Zm-.87,5.223h-3.482v-3.482h3.482Zm0,0" transform="translate(-171.109 -356.477)" fill="#fff"/>
</svg>
