<svg xmlns="http://www.w3.org/2000/svg" width="19.884" height="26.512" viewBox="0 0 19.884 26.512">
  <path id="file-pdf-solid_1_" data-name="file-pdf-solid (1)" d="M9.419,13.261a5,5,0,0,1-.1-2.429C9.75,10.833,9.709,12.743,9.419,13.261Zm-.088,2.444A23.893,23.893,0,0,1,7.86,18.952a19.067,19.067,0,0,1,3.257-1.134,6.708,6.708,0,0,1-1.786-2.113ZM4.458,22.167c0,.041.684-.28,1.807-2.082A7.157,7.157,0,0,0,4.458,22.167ZM12.842,8.285h7.042V25.269a1.24,1.24,0,0,1-1.243,1.243H1.243A1.24,1.24,0,0,1,0,25.269V1.243A1.24,1.24,0,0,1,1.243,0H11.6V7.042A1.246,1.246,0,0,0,12.842,8.285Zm-.414,8.9A5.2,5.2,0,0,1,10.216,14.4a7.443,7.443,0,0,0,.321-3.324,1.3,1.3,0,0,0-2.475-.352,8.61,8.61,0,0,0,.419,3.987,48.623,48.623,0,0,1-2.113,4.443c-.005,0-.005.005-.01.005-1.4.72-3.811,2.3-2.822,3.521a1.609,1.609,0,0,0,1.113.518c.927,0,1.849-.932,3.164-3.2a29.516,29.516,0,0,1,4.091-1.2,7.847,7.847,0,0,0,3.314,1.01,1.34,1.34,0,0,0,1.02-2.247C15.519,16.849,13.427,17.051,12.427,17.181ZM19.521,5.437,14.447.362A1.242,1.242,0,0,0,13.567,0h-.311V6.628h6.628V6.312A1.239,1.239,0,0,0,19.521,5.437Zm-3.837,13.22c.212-.14-.129-.616-2.216-.466C15.389,19.009,15.684,18.657,15.684,18.657Z" fill="#fff"/>
</svg>
