<svg xmlns="http://www.w3.org/2000/svg" width="180.349" height="57.86" viewBox="0 0 180.349 57.86">
  <g id="logo" transform="translate(-2.3 -12.37)">
    <path id="Path_1" data-name="Path 1" d="M142.9,27.331V38l37.069-21.2v10.19L142.9,48.191V58.86l46.028-26.331V1Z" transform="translate(-6.279 11.37)" fill="#0a2240"/>
    <path id="Path_2" data-name="Path 2" d="M133.07,44.511V33.842L111.8,21.6V53.129l21.27,12.242V54.7l-12.242-7.044V37.467Z" transform="translate(3.551 4.859)" fill="#e07c00"/>
    <g id="Group_1" data-name="Group 1">
      <path id="Path_3" data-name="Path 3" d="M7.4,37.2a4.268,4.268,0,0,1-4.3-4.3,4.207,4.207,0,0,1,4.3-4.3,4.759,4.759,0,0,1,3.3,1.3L9.8,31a3.591,3.591,0,0,0-2.4-1.1,3.007,3.007,0,0,0,0,6,3.043,3.043,0,0,0,2.4-1.1l.9.9A3.871,3.871,0,0,1,7.4,37.2Z" fill="#0a2240"/>
      <path id="Path_4" data-name="Path 4" d="M16.2,37.2a4.3,4.3,0,1,1,0-8.6,4.291,4.291,0,0,1,4.4,4.3A4.354,4.354,0,0,1,16.2,37.2Zm0-7.4a2.865,2.865,0,0,0-2.9,3,2.924,2.924,0,0,0,2.9,3,2.865,2.865,0,0,0,2.9-3A3.059,3.059,0,0,0,16.2,29.8Z" fill="#0a2240"/>
      <path id="Path_5" data-name="Path 5" d="M28.2,28.7h1.4V37H28.4l-4.6-6v6H22.4V28.6h1.4l4.5,5.8Z" fill="#0a2240"/>
      <path id="Path_6" data-name="Path 6" d="M35,32.2c1.8.4,2.7,1.1,2.7,2.5,0,1.6-1.2,2.5-3,2.5a4.749,4.749,0,0,1-3.5-1.4l.9-1.1a3.864,3.864,0,0,0,2.7,1.1c.9,0,1.5-.4,1.5-1.1,0-.6-.3-.9-1.9-1.3-1.8-.4-2.8-.9-2.8-2.5,0-1.5,1.2-2.4,2.9-2.4a4.426,4.426,0,0,1,3,1.1l-.8,1.1a3.523,3.523,0,0,0-2.3-.9c-.9,0-1.4.4-1.4,1C33,31.5,33.4,31.8,35,32.2Z" fill="#0a2240"/>
      <path id="Path_7" data-name="Path 7" d="M42.8,37H41.3V30H38.6V28.6h6.8V30H42.7C42.8,30,42.8,37,42.8,37Z" fill="#0a2240"/>
      <path id="Path_8" data-name="Path 8" d="M52.4,37l-2-2.9H48.5V37H47V28.6h3.7c1.9,0,3.1,1,3.1,2.7a2.407,2.407,0,0,1-2,2.5L54.1,37Zm-1.7-7H48.5v2.8h2.2c1.1,0,1.7-.6,1.7-1.4C52.4,30.5,51.7,30,50.7,30Z" fill="#0a2240"/>
      <path id="Path_9" data-name="Path 9" d="M62.8,33.4c0,2.5-1.4,3.8-3.6,3.8s-3.6-1.2-3.6-3.7V28.7h1.5v4.8c0,1.6.8,2.4,2.1,2.4s2.1-.8,2.1-2.4V28.7h1.5Z" fill="#0a2240"/>
      <path id="Path_10" data-name="Path 10" d="M68.7,37.2a4.268,4.268,0,0,1-4.3-4.3,4.207,4.207,0,0,1,4.3-4.3A4.573,4.573,0,0,1,72,29.9L71.1,31a3.591,3.591,0,0,0-2.4-1.1,3.007,3.007,0,0,0,0,6,3.043,3.043,0,0,0,2.4-1.1l.9.9A4,4,0,0,1,68.7,37.2Z" fill="#0a2240"/>
      <path id="Path_11" data-name="Path 11" d="M77.2,37H75.7V30H73V28.6h6.8V30H77.1v7Z" fill="#0a2240"/>
      <path id="Path_12" data-name="Path 12" d="M83,28.7V37H81.5V28.6H83Z" fill="#0a2240"/>
      <path id="Path_13" data-name="Path 13" d="M89.2,37.2a4.3,4.3,0,1,1,4.4-4.3A4.291,4.291,0,0,1,89.2,37.2Zm0-7.4a2.865,2.865,0,0,0-2.9,3,2.924,2.924,0,0,0,2.9,3,2.865,2.865,0,0,0,2.9-3A2.989,2.989,0,0,0,89.2,29.8Z" fill="#0a2240"/>
      <path id="Path_14" data-name="Path 14" d="M101.3,28.7h1.4V37h-1.2l-4.7-6v6H95.4V28.6h1.4l4.5,5.8V28.7Z" fill="#0a2240"/>
      <path id="Path_15" data-name="Path 15" d="M12.3,60c-5.8,0-10-4.5-10-10.3a9.973,9.973,0,0,1,10-10.3,10.42,10.42,0,0,1,7.8,3.2l-1.6,1.7a8.569,8.569,0,0,0-6.3-2.7c-4.4,0-7.7,3.5-7.7,8.2S7.8,58,12.3,58c2.7,0,4.5-1.1,6.4-2.9l1.5,1.4A10.3,10.3,0,0,1,12.3,60Z" fill="#0a2240"/>
      <path id="Path_16" data-name="Path 16" d="M26.4,50.7v8.9H24.2V39.7h2.2v8.9H37.9V39.7h2.2V59.6H37.9V50.7Z" fill="#0a2240"/>
      <path id="Path_17" data-name="Path 17" d="M60.1,41.8H48v6.8H58.9v2H48v6.9H60.3v2H45.7V39.8H60.1Z" fill="#0a2240"/>
      <path id="Path_18" data-name="Path 18" d="M73.9,60c-5.8,0-10-4.5-10-10.3a9.973,9.973,0,0,1,10-10.3,10.42,10.42,0,0,1,7.8,3.2l-1.6,1.7a8.569,8.569,0,0,0-6.3-2.7c-4.4,0-7.7,3.5-7.7,8.2S69.4,58,73.8,58c2.7,0,4.5-1.1,6.4-2.9l1.5,1.4A9.787,9.787,0,0,1,73.9,60Z" fill="#0a2240"/>
      <path id="Path_19" data-name="Path 19" d="M102.7,59.7H99.9l-7.6-9.6-4.2,4.3v5.3H85.9V39.8h2.2V51.7L99.5,39.8h2.9l-8.6,8.7Z" fill="#0a2240"/>
    </g>
    <line id="Line_1" data-name="Line 1" x2="100.4" transform="translate(3.1 67.3)" fill="none" stroke="#e07c00" stroke-miterlimit="10" stroke-width="1"/>
  </g>
</svg>
