<svg id="opportunity" xmlns="http://www.w3.org/2000/svg" width="49.774" height="46.659" viewBox="0 0 49.774 46.659">
  <g id="Group_2" data-name="Group 2">
    <path id="Path_34" data-name="Path 34" d="M46.232,46.108c-.089-.094-.179-.186-.27-.276v-2.97a5.217,5.217,0,0,0-5.053-5.356H32.047V34.814A5.076,5.076,0,0,0,27.131,29.6h-8.3a5.076,5.076,0,0,0-4.916,5.211v2.692H5.053A5.217,5.217,0,0,0,0,42.862V66.7a5.217,5.217,0,0,0,5.053,5.356H15.6a.774.774,0,0,0,0-1.546H5.053A3.711,3.711,0,0,1,1.458,66.7V51.111A8.49,8.49,0,0,0,7.925,55.1v2.814a2.839,2.839,0,0,0,2.75,2.914,2.839,2.839,0,0,0,2.75-2.914V55.127H25.608c0,.012,0,.025,0,.037a13.253,13.253,0,0,0,2.127,7.261l-1.548,1.641a1.539,1.539,0,0,0-1.571.431L18.67,70.8a3.341,3.341,0,0,0,0,4.525,2.9,2.9,0,0,0,4.269,0l5.946-6.3a1.77,1.77,0,0,0,.407-1.665l1.549-1.642a11.549,11.549,0,0,0,13.664.024V66.7a3.711,3.711,0,0,1-3.595,3.81H29.394a.774.774,0,0,0,0,1.546H40.91A5.217,5.217,0,0,0,45.963,66.7V64.5c.091-.09.181-.182.27-.276a13.349,13.349,0,0,0,0-18.112ZM15.374,34.814a3.571,3.571,0,0,1,3.458-3.666h8.3a3.571,3.571,0,0,1,3.458,3.666v2.692H29.033V34.814a1.965,1.965,0,0,0-1.9-2.017h-8.3a1.965,1.965,0,0,0-1.9,2.017v2.692H15.374Zm3.013,2.692V34.814a.459.459,0,0,1,.445-.471h8.3a.459.459,0,0,1,.445.471v2.692ZM11.966,55.54H9.383v-2.6a1.294,1.294,0,1,1,2.583,0Zm-1.291,3.744a1.333,1.333,0,0,1-1.291-1.369v-.83h2.583v.83A1.333,1.333,0,0,1,10.674,59.284Zm2.75-5.7v-.643a2.839,2.839,0,0,0-2.75-2.914,2.839,2.839,0,0,0-2.75,2.914v.611a7.384,7.384,0,0,1-6.467-7.5V42.862a3.711,3.711,0,0,1,3.595-3.81H40.91a3.711,3.711,0,0,1,3.595,3.81v1.724a11.574,11.574,0,0,0-15.359,1.522A13.02,13.02,0,0,0,25.7,53.581H13.424Zm8.484,20.65a1.5,1.5,0,0,1-2.207,0,1.725,1.725,0,0,1,0-2.339l4.119-4.366,2.207,2.339Zm5.946-6.3-.8.843-2.207-2.339.8-.843a.138.138,0,0,1,.2,0h0l2,2.124a.159.159,0,0,1,0,.215Zm.55-1.817-1.043-1.105,1.28-1.357q.244.291.505.57t.538.535Zm1.774-2.985a11.744,11.744,0,0,1,0-15.926,10.2,10.2,0,0,1,15.024,0,11.738,11.738,0,0,1,0,15.926A10.2,10.2,0,0,1,30.177,63.127Z" transform="translate(0 -29.603)" fill="#fff"/>
  </g>
  <path id="check-solid" d="M3.97,73.644l-3.8-3.8a.584.584,0,0,1,0-.827L1,68.192a.584.584,0,0,1,.827,0l2.559,2.559,5.481-5.481a.584.584,0,0,1,.827,0l.827.827a.584.584,0,0,1,0,.827L4.8,73.644a.584.584,0,0,1-.827,0Z" transform="translate(32.151 -43.368)" fill="#e17b00"/>
</svg>
