<svg id="register" xmlns="http://www.w3.org/2000/svg" width="45.998" height="46" viewBox="0 0 45.998 46">
  <path id="Path_36" data-name="Path 36" d="M26.977,35H25.3c-7.124,0-10.262-2.392-10.394-2.5A.958.958,0,1,1,16.087,31c.021.017,2.821,2.087,9.211,2.087h1.679a2.7,2.7,0,0,0,2.672-2.264L30.721,24.4a2.708,2.708,0,0,0-2.67-3.155h-5.5a.96.96,0,0,1-.8-1.491,6.262,6.262,0,0,0,.755-3.136c0-1.968-.82-2.7-1.336-2.7a.6.6,0,0,0-.2.021c0,.011-.215.286-.215,1.771,0,3.739-4.611,6.243-4.809,6.348a.958.958,0,0,1-.9-1.69c1.054-.567,3.793-2.509,3.793-4.658,0-1.3,0-3.709,2.335-3.709,1.564,0,3.249,1.447,3.249,4.625a8.947,8.947,0,0,1-.412,2.708h4.037a4.627,4.627,0,0,1,4.562,5.386l-1.071,6.417A4.6,4.6,0,0,1,26.977,35Z" transform="translate(13.326 11)" fill="#fff"/>
  <path id="Path_35" data-name="Path 35" d="M15.906,31.931H14.875A2.879,2.879,0,0,1,12,29.056V18.223a2.879,2.879,0,0,1,2.875-2.875h1.031a2.879,2.879,0,0,1,2.875,2.875V29.056A2.879,2.879,0,0,1,15.906,31.931ZM14.875,17.265a.961.961,0,0,0-.958.958V29.056a.961.961,0,0,0,.958.958h1.031a.961.961,0,0,0,.958-.958V18.223a.961.961,0,0,0-.958-.958Z" transform="translate(11 14.069)" fill="#fff"/>
  <path id="Path_37" data-name="Path 37" d="M18.208,37.5H4.792A4.8,4.8,0,0,1,0,32.708V7.792A4.8,4.8,0,0,1,4.792,3H8.625a.958.958,0,0,1,0,1.917H4.792A2.879,2.879,0,0,0,1.917,7.792V32.708a2.879,2.879,0,0,0,2.875,2.875H18.208a.958.958,0,1,1,0,1.917Z" transform="translate(0 2.75)" fill="#fff"/>
  <path id="Path_38" data-name="Path 38" d="M18.375,11.5H6.875A2.879,2.879,0,0,1,4,8.625V4.792a.959.959,0,0,1,.958-.958H7.929a4.793,4.793,0,0,1,9.392,0h2.971a.959.959,0,0,1,.958.958V8.625A2.879,2.879,0,0,1,18.375,11.5ZM5.917,5.75V8.625a.961.961,0,0,0,.958.958h11.5a.961.961,0,0,0,.958-.958V5.75H16.458a.959.959,0,0,1-.958-.958,2.875,2.875,0,1,0-5.75,0,.959.959,0,0,1-.958.958Z" transform="translate(3.667)" fill="#fff"/>
  <path id="Path_39" data-name="Path 39" d="M23.125,9.917H3.958A.958.958,0,1,1,3.958,8H23.125a.958.958,0,1,1,0,1.917Z" transform="translate(2.75 7.333)" fill="#e17b00"/>
  <path id="Path_40" data-name="Path 40" d="M23.125,12.917H3.958a.958.958,0,1,1,0-1.917H23.125a.958.958,0,1,1,0,1.917Z" transform="translate(2.75 10.083)" fill="#e17b00"/>
  <path id="Path_41" data-name="Path 41" d="M15.458,15.917H3.958a.958.958,0,1,1,0-1.917h11.5a.958.958,0,1,1,0,1.917Z" transform="translate(2.75 12.833)" fill="#e17b00"/>
  <path id="Path_42" data-name="Path 42" d="M20.625,16.417a.959.959,0,0,1-.958-.958V7.792a2.879,2.879,0,0,0-2.875-2.875H12.958a.958.958,0,1,1,0-1.917h3.833a4.8,4.8,0,0,1,4.792,4.792v7.667A.959.959,0,0,1,20.625,16.417Z" transform="translate(11 2.75)" fill="#fff"/>
</svg>
