<?xml version="1.0" standalone="no"?>
<!DOCTYPE svg PUBLIC "-//W3C//DTD SVG 20010904//EN"
 "http://www.w3.org/TR/2001/REC-SVG-20010904/DTD/svg10.dtd">
<svg version="1.0" xmlns="http://www.w3.org/2000/svg"
 width="364.000000pt" height="364.000000pt" viewBox="0 0 364.000000 364.000000"
 preserveAspectRatio="xMidYMid meet">
<metadata>
Created by potrace 1.11, written by Peter Selinger 2001-2013
</metadata>
<g transform="translate(0.000000,364.000000) scale(0.100000,-0.100000)"
fill="#000000" stroke="none">
<path d="M2380 2660 c-652 -374 -1194 -684 -1206 -690 -18 -10 -79 22 -475
251 -250 144 -474 273 -498 287 -25 13 -67 38 -94 54 -26 15 -51 26 -55 24 -4
-2 -7 -371 -6 -819 0 -822 1 -847 34 -847 4 0 74 -39 156 -86 82 -47 167 -96
189 -109 22 -12 128 -73 235 -135 107 -62 214 -124 238 -137 23 -13 93 -53
154 -89 l112 -65 1205 689 1206 689 3 832 c1 457 -1 831 -5 830 -5 0 -541
-306 -1193 -679z m720 -422 l-1 -263 -970 -554 -970 -555 -52 27 c-29 15 -72
38 -97 53 -25 14 -71 41 -103 60 -32 19 -62 34 -68 34 -5 0 -9 5 -9 10 0 6 -4
10 -10 10 -5 0 -31 13 -58 29 -26 15 -68 40 -93 53 -24 14 -65 38 -91 53 -26
14 -51 31 -54 37 -9 14 -11 519 -3 524 3 2 105 -53 225 -123 121 -69 244 -139
274 -156 30 -16 74 -43 98 -58 l42 -28 968 554 c532 305 968 554 970 554 1 1
2 -117 2 -261z"/>
</g>
</svg>
